<?xml version="1.0" encoding="utf-8"?>
<!-- Generator: Adobe Illustrator 16.0.0, SVG Export Plug-In . SVG Version: 6.00 Build 0)  -->
<!DOCTYPE svg PUBLIC "-//W3C//DTD SVG 1.1//EN" "http://www.w3.org/Graphics/SVG/1.1/DTD/svg11.dtd">
<svg version="1.1" id="Capa_1" xmlns="http://www.w3.org/2000/svg" xmlns:xlink="http://www.w3.org/1999/xlink" x="0px" y="0px"
	 width="237.667px" height="44px" viewBox="0 0 237.667 44" enable-background="new 0 0 237.667 44" xml:space="preserve">
<g>
	<path fill="#FFFFFF" d="M145.534,10.037c0.396,0,0.773,0.1,1.136,0.297c0.361,0.196,0.646,0.479,0.853,0.847
		c0.208,0.368,0.312,0.753,0.312,1.157c0,0.398-0.103,0.781-0.303,1.144c-0.205,0.363-0.488,0.646-0.852,0.849
		c-0.363,0.205-0.744,0.306-1.146,0.306c-0.4,0-0.78-0.101-1.144-0.306c-0.364-0.202-0.646-0.485-0.85-0.849
		c-0.205-0.362-0.307-0.745-0.307-1.144c0-0.404,0.104-0.789,0.311-1.157c0.209-0.367,0.494-0.65,0.854-0.847
		C144.763,10.137,145.14,10.037,145.534,10.037z M145.537,10.489c-0.314,0-0.617,0.078-0.906,0.236
		c-0.291,0.159-0.521,0.386-0.688,0.681c-0.168,0.297-0.251,0.606-0.251,0.932c0,0.321,0.082,0.629,0.245,0.92
		c0.162,0.292,0.39,0.521,0.684,0.684c0.291,0.165,0.597,0.247,0.916,0.247c0.322,0,0.631-0.082,0.922-0.247
		c0.291-0.163,0.518-0.392,0.681-0.684c0.166-0.291,0.247-0.599,0.247-0.92c0-0.325-0.084-0.635-0.25-0.932
		c-0.168-0.295-0.396-0.521-0.688-0.681C146.155,10.567,145.853,10.489,145.537,10.489z M144.498,13.566v-2.438h0.494
		c0.465,0,0.725,0.002,0.781,0.006c0.163,0.014,0.29,0.047,0.381,0.098c0.09,0.051,0.167,0.129,0.229,0.234
		c0.06,0.104,0.09,0.222,0.09,0.349c0,0.177-0.058,0.326-0.172,0.453c-0.117,0.124-0.277,0.201-0.485,0.231
		c0.073,0.027,0.13,0.06,0.172,0.093c0.038,0.031,0.096,0.095,0.163,0.188c0.019,0.023,0.08,0.121,0.181,0.296l0.288,0.491h-0.609
		l-0.204-0.395c-0.141-0.269-0.252-0.436-0.342-0.502c-0.092-0.07-0.207-0.105-0.346-0.105h-0.127v1.002L144.498,13.566
		L144.498,13.566z M144.992,12.181h0.2c0.287,0,0.463-0.01,0.533-0.033c0.069-0.022,0.123-0.06,0.162-0.115
		c0.041-0.055,0.062-0.117,0.062-0.188c0-0.067-0.021-0.129-0.06-0.181c-0.039-0.055-0.095-0.092-0.165-0.115
		c-0.073-0.023-0.251-0.035-0.532-0.035h-0.2V12.181z"/>
</g>
<g>
	<path fill="#FFFFFF" d="M82.007,34.479H76.73l-2.097-5.455h-9.602l-1.979,5.455h-5.146l9.354-24.017h5.127L82.007,34.479z
		 M73.077,24.979l-3.309-8.913l-3.242,8.913H73.077z"/>
	<path fill="#FFFFFF" d="M84.579,34.479V10.463h17.807v4.063H89.427v5.325h12.059v4.045H89.427v6.537h13.418v4.045H84.579z"/>
	<path fill="#FFFFFF" d="M106.138,22.783c0-3.987,1.071-7.107,3.211-9.363c2.142-2.255,4.903-3.383,8.29-3.383
		c2.218,0,4.216,0.53,5.995,1.591c1.779,1.059,3.138,2.535,4.072,4.431c0.932,1.894,1.399,4.044,1.399,6.446
		c0,2.437-0.492,4.614-1.475,6.537c-0.984,1.921-2.375,3.378-4.179,4.366c-1.801,0.988-3.746,1.48-5.832,1.48
		c-2.261,0-4.282-0.545-6.061-1.639c-1.781-1.091-3.13-2.583-4.047-4.471C106.597,26.891,106.138,24.893,106.138,22.783z
		 M109.414,22.832c0,2.896,0.778,5.174,2.335,6.839c1.556,1.667,3.508,2.499,5.856,2.499c2.393,0,4.36-0.841,5.905-2.521
		c1.546-1.684,2.319-4.069,2.319-7.16c0-1.955-0.332-3.661-0.992-5.12c-0.659-1.457-1.627-2.587-2.899-3.391
		c-1.272-0.804-2.7-1.203-4.284-1.203c-2.25,0-4.186,0.771-5.808,2.317C110.225,16.637,109.414,19.218,109.414,22.832z"/>
	<path fill="#FFFFFF" d="M133.07,34.479V10.463h3.178v21.184h11.828v2.834H133.07V34.479z"/>
</g>
<g>
	<path fill="#FFFFFF" d="M168.157,33.697c-1.114,0.559-3.348,1.115-6.207,1.115c-6.625,0-11.612-4.184-11.612-11.891
		c0-7.359,4.987-12.345,12.274-12.345c2.933,0,4.779,0.627,5.579,1.045l-0.73,2.478c-1.15-0.556-2.791-0.978-4.742-0.978
		c-5.51,0-9.172,3.522-9.172,9.694c0,5.754,3.314,9.451,9.033,9.451c1.848,0,3.729-0.385,4.951-0.978L168.157,33.697z"/>
	<path fill="#FFFFFF" d="M171.039,10.655h2.953v23.824h-2.953V10.655z"/>
	<path fill="#FFFFFF" d="M193.653,26.227c0,6.002-4.16,8.621-8.087,8.621c-4.395,0-7.785-3.224-7.785-8.354
		c0-5.436,3.559-8.624,8.057-8.624C190.5,17.868,193.653,21.256,193.653,26.227z M180.77,26.395c0,3.556,2.047,6.239,4.932,6.239
		c2.818,0,4.935-2.649,4.935-6.312c0-2.75-1.376-6.238-4.867-6.238S180.77,23.305,180.77,26.395z"/>
	<path fill="#FFFFFF" d="M210.965,30.049c0,1.68,0.034,3.154,0.136,4.43h-2.619l-0.166-2.651h-0.068
		c-0.771,1.312-2.481,3.021-5.369,3.021c-2.547,0-5.604-1.408-5.604-7.113v-9.496h2.952v8.992c0,3.086,0.942,5.168,3.625,5.168
		c1.979,0,3.354-1.375,3.891-2.685c0.171-0.438,0.271-0.974,0.271-1.511v-9.965h2.952L210.965,30.049L210.965,30.049z"/>
	<path fill="#FFFFFF" d="M229.89,10.655v19.629c0,1.444,0.033,3.089,0.135,4.194h-2.652l-0.134-2.819h-0.067
		c-0.905,1.813-2.885,3.188-5.536,3.188c-3.927,0-6.946-3.322-6.946-8.256c-0.033-5.402,3.322-8.725,7.282-8.725
		c2.481,0,4.162,1.177,4.899,2.483h0.065v-9.696L229.89,10.655L229.89,10.655z M226.936,24.848c0-0.367-0.034-0.873-0.134-1.24
		c-0.437-1.879-2.049-3.423-4.26-3.423c-3.058,0-4.867,2.685-4.867,6.274c0,3.288,1.61,6.007,4.798,6.007
		c1.979,0,3.792-1.311,4.329-3.523c0.1-0.401,0.134-0.805,0.134-1.274V24.848z"/>
</g>
<g>
	<polygon fill="#FFFFFF" points="35.58,27.084 30.434,13.191 25.388,27.084 	"/>
	<polygon fill="#FFFFFF" points="20.298,41.037 40.933,41.037 38.001,33.393 23.069,33.393 	"/>
	<path fill="#FFFFFF" d="M26.477,4.606c-0.483-0.054-0.974-0.092-1.472-0.092c-7.26,0-13.146,5.887-13.146,13.147
		c0,0.504,0.031,1,0.086,1.49c-3.795,1.893-6.403,5.81-6.403,10.339c0,4.807,2.941,8.929,7.12,10.664L26.477,4.606z"/>
	<path fill="#FFFFFF" d="M47.778,21.371c0.36-0.854,0.56-1.794,0.56-2.779c0-3.953-3.205-7.158-7.157-7.158
		c-1.278,0-2.476,0.337-3.514,0.924l11.14,27.887c3.601-1.526,6.127-5.095,6.127-9.253C54.934,26.45,51.917,22.611,47.778,21.371z"
		/>
</g>
</svg>
